<?xml version="1.0" encoding="utf-8"?>
<!-- Generator: Adobe Illustrator 27.7.0, SVG Export Plug-In . SVG Version: 6.00 Build 0)  -->
<svg version="1.1" id="Capa_1" xmlns="http://www.w3.org/2000/svg" xmlns:xlink="http://www.w3.org/1999/xlink" x="0px" y="0px"
	 viewBox="0 0 203 60" style="enable-background:new 0 0 203 60;" xml:space="preserve" width="177" height="29">
<style type="text/css">
	.st0{fill:#9333EA;}
</style>
<g>
	<path class="st0" d="M23.3,10.2c2.3,0,4.3,0.2,5.9,0.7c1.6,0.4,3,1.1,4,1.9c1.1,0.8,1.8,1.8,2.3,3c0.5,1.2,0.8,2.5,0.8,4
		c0,0.9-0.1,1.7-0.4,2.5c-0.3,0.8-0.7,1.6-1.2,2.3c-0.6,0.7-1.3,1.3-2.1,1.9c-0.8,0.6-1.8,1-3,1.4c5.3,1.1,8,3.8,8,8.3
		c0,1.6-0.3,3-0.9,4.3c-0.6,1.3-1.4,2.4-2.5,3.3C33,44.8,31.7,45.5,30,46c-1.6,0.5-3.4,0.8-5.5,0.8H11.4V10.2H23.3z M16.8,14.5v12
		H23c2.7,0,4.6-0.5,5.9-1.6c1.3-1.1,1.9-2.5,1.9-4.4c0-2.1-0.6-3.6-1.9-4.6c-1.2-1-3.2-1.4-5.8-1.4H16.8z M24.4,42.5
		c1.4,0,2.5-0.2,3.5-0.5c1-0.3,1.8-0.8,2.4-1.3c0.6-0.6,1.1-1.2,1.4-2c0.3-0.8,0.4-1.6,0.4-2.5c0-1.8-0.6-3.2-1.9-4.3
		c-1.3-1-3.2-1.6-5.8-1.6h-7.6v12.2H24.4z"/>
	<path class="st0" d="M78.5,28.5c0,2.7-0.4,5.2-1.3,7.5c-0.9,2.3-2.1,4.3-3.7,5.9c-1.6,1.7-3.5,2.9-5.7,3.9
		c-2.2,0.9-4.7,1.4-7.4,1.4c-2.7,0-5.2-0.5-7.4-1.4c-2.2-0.9-4.1-2.2-5.7-3.9c-1.6-1.7-2.8-3.6-3.7-5.9c-0.9-2.3-1.3-4.8-1.3-7.5
		c0-2.7,0.4-5.2,1.3-7.5c0.9-2.3,2.1-4.3,3.7-5.9c1.6-1.7,3.5-2.9,5.7-3.9c2.2-0.9,4.7-1.4,7.4-1.4c2.7,0,5.2,0.5,7.4,1.4
		c2.2,0.9,4.1,2.2,5.7,3.9c1.6,1.7,2.8,3.6,3.7,5.9C78.1,23.3,78.5,25.8,78.5,28.5z M72.9,28.5c0-2.2-0.3-4.1-0.9-5.9
		c-0.6-1.7-1.4-3.2-2.5-4.4c-1.1-1.2-2.4-2.1-4-2.8c-1.6-0.6-3.3-1-5.2-1c-1.9,0-3.7,0.3-5.2,1c-1.6,0.6-2.9,1.6-4,2.8
		c-1.1,1.2-2,2.7-2.5,4.4c-0.6,1.7-0.9,3.7-0.9,5.9c0,2.2,0.3,4.1,0.9,5.9c0.6,1.7,1.4,3.2,2.5,4.4c1.1,1.2,2.4,2.1,4,2.8
		c1.6,0.6,3.3,1,5.2,1c1.9,0,3.7-0.3,5.2-1c1.6-0.6,2.9-1.6,4-2.8c1.1-1.2,1.9-2.7,2.5-4.4C72.7,32.7,72.9,30.7,72.9,28.5z"/>
	<path d="M88.5,25.9c0.8-1.7,1.8-3,3-4c1.2-1,2.6-1.5,4.2-1.5c0.6,0,1.1,0.1,1.6,0.2c0.5,0.1,0.9,0.3,1.3,0.6l-0.3,3.7
		c-0.1,0.5-0.4,0.7-0.8,0.7c-0.2,0-0.6,0-1.1-0.1c-0.5-0.1-1-0.1-1.5-0.1c-0.8,0-1.5,0.1-2.1,0.3c-0.6,0.2-1.2,0.6-1.6,1
		c-0.5,0.4-0.9,1-1.3,1.7c-0.4,0.7-0.7,1.4-1,2.2v16.2h-5V20.9h2.9c0.5,0,0.9,0.1,1.1,0.3c0.2,0.2,0.3,0.5,0.4,1L88.5,25.9z"/>
	<path d="M110.5,47.2c-2.1,0-3.7-0.6-4.8-1.8c-1.1-1.2-1.7-2.8-1.7-5V24.9h-3c-0.3,0-0.5-0.1-0.7-0.3c-0.2-0.2-0.3-0.4-0.3-0.8v-2
		l4.2-0.6l1.1-7.7c0.1-0.3,0.2-0.5,0.4-0.7c0.2-0.2,0.4-0.2,0.8-0.2h2.5v8.7h7.3v3.6H109v15.1c0,1,0.3,1.8,0.8,2.3
		c0.5,0.5,1.1,0.8,1.9,0.8c0.5,0,0.9-0.1,1.2-0.2c0.3-0.1,0.6-0.3,0.9-0.4c0.2-0.1,0.4-0.3,0.6-0.4c0.2-0.1,0.3-0.2,0.5-0.2
		c0.2,0,0.3,0,0.4,0.1c0.1,0.1,0.2,0.2,0.3,0.4l1.5,2.4c-0.8,0.7-1.8,1.3-2.9,1.7C112.9,47,111.7,47.2,110.5,47.2z"/>
	<path d="M141.9,43.1c-0.6,0.7-1.3,1.3-2.1,1.8c-0.8,0.5-1.6,0.9-2.5,1.3c-0.9,0.3-1.8,0.6-2.8,0.7c-1,0.2-1.9,0.2-2.8,0.2
		c-1.8,0-3.4-0.3-5-0.9c-1.5-0.6-2.8-1.5-3.9-2.6c-1.1-1.2-2-2.6-2.6-4.3c-0.6-1.7-0.9-3.7-0.9-5.9c0-1.8,0.3-3.5,0.8-5
		c0.6-1.6,1.4-2.9,2.4-4.1c1-1.2,2.3-2.1,3.8-2.7c1.5-0.7,3.2-1,5.1-1c1.6,0,3,0.3,4.4,0.8c1.3,0.5,2.5,1.3,3.4,2.3
		c1,1,1.7,2.2,2.3,3.6c0.6,1.4,0.8,3.1,0.8,4.9c0,0.8-0.1,1.3-0.3,1.5c-0.2,0.3-0.5,0.4-0.9,0.4h-17c0.1,1.5,0.3,2.9,0.7,4
		c0.4,1.1,0.9,2.1,1.6,2.9s1.5,1.3,2.5,1.7c1,0.4,2,0.6,3.2,0.6c1.1,0,2.1-0.1,2.9-0.4c0.8-0.3,1.5-0.5,2.1-0.8
		c0.6-0.3,1.1-0.6,1.5-0.8c0.4-0.3,0.8-0.4,1.1-0.4c0.4,0,0.7,0.2,0.9,0.5L141.9,43.1z M137.8,31c0-1-0.1-1.9-0.4-2.7
		c-0.3-0.8-0.7-1.6-1.2-2.2c-0.5-0.6-1.2-1.1-2-1.4c-0.8-0.3-1.7-0.5-2.7-0.5c-2.1,0-3.7,0.6-4.9,1.8c-1.2,1.2-2,2.9-2.3,5H137.8z"
		/>
	<path d="M169.7,21.9v1.9c0,0.6-0.4,1-1.1,1.1l-2.8,0.4c0.2,0.5,0.4,1.1,0.6,1.7c0.1,0.6,0.2,1.2,0.2,1.8c0,1.3-0.2,2.4-0.7,3.4
		c-0.5,1-1.2,1.9-2,2.6c-0.9,0.7-1.9,1.3-3.1,1.7c-1.2,0.4-2.5,0.6-3.9,0.6c-1.2,0-2.3-0.1-3.3-0.4c-0.5,0.3-0.9,0.6-1.2,1
		c-0.3,0.4-0.4,0.7-0.4,1.1c0,0.6,0.3,1,0.8,1.3c0.5,0.3,1.2,0.5,2,0.6c0.8,0.1,1.7,0.2,2.8,0.2c1,0,2.1,0.1,3.2,0.2
		c1.1,0.1,2.1,0.2,3.2,0.4c1,0.2,2,0.5,2.8,0.9c0.8,0.4,1.5,1,2,1.8c0.5,0.8,0.8,1.7,0.8,2.9c0,1.1-0.3,2.2-0.8,3.3
		c-0.6,1.1-1.4,2-2.4,2.8c-1.1,0.8-2.3,1.5-3.8,2c-1.5,0.5-3.2,0.7-5.1,0.7c-1.9,0-3.6-0.2-5-0.6c-1.4-0.4-2.6-0.9-3.5-1.5
		c-0.9-0.6-1.6-1.4-2.1-2.2c-0.5-0.8-0.7-1.7-0.7-2.6c0-1.3,0.4-2.3,1.2-3.2c0.8-0.9,1.9-1.6,3.2-2c-0.7-0.3-1.3-0.8-1.8-1.4
		c-0.4-0.6-0.7-1.4-0.7-2.3c0-0.4,0.1-0.8,0.2-1.2c0.1-0.4,0.3-0.8,0.6-1.2c0.3-0.4,0.6-0.8,1-1.1c0.4-0.4,0.9-0.7,1.4-1
		c-1.3-0.7-2.3-1.7-3-2.8c-0.7-1.2-1.1-2.6-1.1-4.1c0-1.3,0.2-2.4,0.7-3.4c0.5-1,1.2-1.9,2-2.6c0.9-0.7,1.9-1.3,3.1-1.7
		c1.2-0.4,2.5-0.6,4-0.6c2.2,0,4.2,0.5,5.8,1.4H169.7z M164.7,48.1c0-0.6-0.2-1.1-0.5-1.5c-0.3-0.4-0.8-0.7-1.4-0.9
		c-0.6-0.2-1.3-0.4-2-0.5c-0.8-0.1-1.6-0.2-2.5-0.2c-0.9-0.1-1.7-0.1-2.6-0.1c-0.9,0-1.8-0.1-2.6-0.2c-0.9,0.4-1.6,1-2.2,1.6
		c-0.6,0.6-0.9,1.4-0.9,2.2c0,0.5,0.1,1.1,0.4,1.5c0.3,0.5,0.7,0.9,1.3,1.2c0.6,0.3,1.3,0.6,2.2,0.8c0.9,0.2,2,0.3,3.2,0.3
		c1.2,0,2.3-0.1,3.2-0.3c0.9-0.2,1.7-0.5,2.4-0.9c0.6-0.4,1.1-0.8,1.5-1.4C164.5,49.3,164.7,48.8,164.7,48.1z M156.8,33.9
		c0.9,0,1.7-0.1,2.3-0.4c0.7-0.2,1.2-0.6,1.7-1c0.4-0.4,0.8-1,1-1.6c0.2-0.6,0.3-1.3,0.3-2c0-1.5-0.5-2.7-1.4-3.6
		c-0.9-0.9-2.2-1.3-4-1.3c-1.7,0-3.1,0.4-4,1.3c-0.9,0.9-1.4,2.1-1.4,3.6c0,0.7,0.1,1.4,0.3,2c0.2,0.6,0.6,1.1,1,1.6
		c0.4,0.4,1,0.8,1.7,1C155.1,33.8,155.9,33.9,156.8,33.9z"/>
	<path d="M173.6,24.5c1.4-1.4,3-2.4,4.7-3.1c1.7-0.7,3.5-1,5.6-1c1.5,0,2.8,0.2,3.9,0.7c1.1,0.5,2.1,1.2,2.9,2
		c0.8,0.9,1.4,1.9,1.8,3.1c0.4,1.2,0.6,2.5,0.6,4v16.5h-2.2c-0.5,0-0.9-0.1-1.1-0.2c-0.3-0.2-0.5-0.5-0.6-0.9l-0.5-2.3
		c-0.7,0.6-1.3,1.1-2,1.6c-0.6,0.5-1.3,0.9-2,1.2c-0.7,0.3-1.5,0.6-2.3,0.8c-0.8,0.2-1.7,0.3-2.6,0.3c-1,0-2-0.1-2.9-0.4
		c-0.9-0.3-1.7-0.7-2.3-1.3c-0.7-0.6-1.2-1.3-1.6-2.2c-0.4-0.9-0.6-1.9-0.6-3c0-1,0.3-2,0.8-2.9c0.6-0.9,1.5-1.8,2.7-2.5
		c1.2-0.7,2.9-1.4,4.9-1.8c2-0.5,4.5-0.7,7.4-0.8v-1.9c0-2-0.4-3.4-1.2-4.4c-0.8-1-2.1-1.5-3.7-1.5c-1.1,0-2,0.1-2.7,0.4
		c-0.7,0.3-1.4,0.6-1.9,0.9c-0.5,0.3-1,0.6-1.4,0.9c-0.4,0.3-0.8,0.4-1.2,0.4c-0.3,0-0.6-0.1-0.9-0.3c-0.2-0.2-0.4-0.4-0.6-0.7
		L173.6,24.5z M188.1,35.3c-2,0.1-3.7,0.2-5.1,0.5c-1.4,0.2-2.6,0.6-3.4,1c-0.9,0.4-1.5,0.9-1.9,1.4c-0.4,0.6-0.6,1.2-0.6,1.8
		c0,0.6,0.1,1.2,0.3,1.7c0.2,0.5,0.5,0.8,0.9,1.1c0.4,0.3,0.8,0.5,1.3,0.6c0.5,0.1,1,0.2,1.6,0.2c0.8,0,1.5-0.1,2.1-0.2
		c0.6-0.2,1.2-0.4,1.8-0.6s1.1-0.6,1.6-1c0.5-0.4,1-0.9,1.5-1.4V35.3z"/>
</g>
</svg>
